<?xml version="1.0" encoding="utf-8"?>
<!-- Generator: Adobe Illustrator 15.0.0, SVG Export Plug-In . SVG Version: 6.00 Build 0)  -->
<!DOCTYPE svg PUBLIC "-//W3C//DTD SVG 1.1//EN" "http://www.w3.org/Graphics/SVG/1.1/DTD/svg11.dtd">
<svg version="1.1"
	 id="svg1009" xmlns:dc="http://purl.org/dc/elements/1.1/" xmlns:cc="http://creativecommons.org/ns#" xmlns:rdf="http://www.w3.org/1999/02/22-rdf-syntax-ns#" xmlns:svg="http://www.w3.org/2000/svg" xmlns:sodipodi="http://sodipodi.sourceforge.net/DTD/sodipodi-0.dtd" xmlns:inkscape="http://www.inkscape.org/namespaces/inkscape" inkscape:version="0.92.5 (2060ec1f9f, 2020-04-08)" sodipodi:docname="final.svg"
	 xmlns="http://www.w3.org/2000/svg" xmlns:xlink="http://www.w3.org/1999/xlink" x="0px" y="0px" width="128px" height="128px"
	 viewBox="0 0 128 128" enable-background="new 0 0 128 128" xml:space="preserve">
<sodipodi:namedview  units="px" id="base" inkscape:cy="87.245841" fit-margin-left="0" fit-margin-top="0" inkscape:cx="105.75349" inkscape:zoom="3.959798" borderopacity="1.0" bordercolor="#666666" showgrid="false" pagecolor="#ffffff" inkscape:snap-text-baseline="true" inkscape:snap-object-midpoints="true" inkscape:snap-smooth-nodes="true" inkscape:snap-intersection-paths="true" inkscape:snap-bbox-midpoints="true" inkscape:snap-bbox-edge-midpoints="true" inkscape:window-maximized="0" inkscape:snap-page="true" inkscape:snap-center="true" inkscape:snap-midpoints="true" inkscape:object-paths="true" inkscape:bbox-nodes="true" inkscape:bbox-paths="true" inkscape:snap-bbox="true" inkscape:snap-global="true" fit-margin-bottom="0" fit-margin-right="0" inkscape:window-y="0" inkscape:window-x="1280" inkscape:window-height="1026" inkscape:window-width="1280" inkscape:current-layer="layer1" inkscape:document-units="px" inkscape:pageshadow="2" inkscape:pageopacity="0.0">
	</sodipodi:namedview>
<g id="layer1" transform="translate(-33.366777,-213.89149)" inkscape:label="Layer 1" inkscape:groupmode="layer">
	<path id="path1583" inkscape:connector-curvature="0" fill="#CCFFF5" d="M83.201,213.891c-1.099,0-2.216,0.163-3.32,0.507
		c-5.456,1.698-8.75,7.24-7.635,12.845c-0.256,0.15-0.512,0.305-0.763,0.464c-9.353,5.935-18.334,13.541-21.789,25.09
		c-0.403,1.349-1.12,3.755,1.063,5.179c5.831,8.662,56.609-16.945,69.176,12.689c0.287,0.852,0.523,1.719,0.712,2.596
		c0.351,1.626,0.534,3.286,0.539,4.954c0,9.739-5.843,18.107-14.212,21.805l3.558,8.061c2.708-1.196,5.22-2.754,7.482-4.605
		l2.079,2.541c-6.414,5.256-14.449,8.131-22.741,8.139c-2.75-0.012-5.49-0.34-8.166-0.979l-2.174,9.316
		c3.388,0.811,6.857,1.229,10.34,1.247c5.265-0.02,10.487-0.952,15.434-2.757l1.107,3.068c-3.672,1.325-7.549,2.225-11.57,2.633
		l0.954,9.307c29.291-2.969,52.15-27.702,52.15-57.776c-0.017-4.114-0.458-8.165-1.274-12.081
		c-3.168-15.179-11.631-26.66-22.785-34.979c-9.732-7.257-26.504-11.557-34.919-10.348c1.577,5.659-1.5,11.573-7.04,13.53
		c4.107-2.75,5.919-7.871,4.455-12.591C92.374,216.96,87.963,213.891,83.201,213.891L83.201,213.891z M71.542,234.942
		c0.711,0.038,1.413,0.19,2.076,0.457c-0.31,3.129-2.841,5.574-5.979,5.776c-0.952,0.057-1.904-0.097-2.788-0.454
		c0.263-2.654,2.14-4.87,4.714-5.566c0.414-0.112,0.837-0.182,1.265-0.209C71.068,234.934,71.305,234.931,71.542,234.942
		L71.542,234.942z M128.635,260.669c0.22,0.391,0.43,0.786,0.634,1.185l-2.897,1.485c-0.187-0.362-0.378-0.721-0.578-1.076
		L128.635,260.669z M131.207,266.369c0.174,0.492,0.334,0.989,0.485,1.489l-3.108,0.938c-0.139-0.455-0.287-0.906-0.445-1.354
		L131.207,266.369z M53.089,267.884c-0.219,0.958-0.408,1.924-0.564,2.895l9.421,1.563c0.127-0.766,0.278-1.528,0.455-2.285
		L53.089,267.884z M145.336,269.887c0.09,0.506,0.171,1.015,0.244,1.525l-3.228,0.455c-0.066-0.476-0.14-0.951-0.222-1.424
		L145.336,269.887z M132.726,272.433c0.111,0.573,0.209,1.148,0.293,1.726l-3.242,0.369c-0.063-0.528-0.139-1.054-0.225-1.577
		L132.726,272.433z M51.96,275.725c-0.067,0.829-0.112,1.659-0.134,2.49c0.013,0.336,0.03,0.672,0.051,1.009l9.562-0.212
		c-0.012-0.266-0.021-0.531-0.027-0.797c0.016-0.656,0.051-1.312,0.103-1.966L51.96,275.725z M142.871,278.337l3.197,0.008
		c0,0.611-0.017,1.219-0.039,1.824l-3.218-0.13c0.03-0.567,0.051-1.136,0.06-1.704V278.337z M129.988,278.623l3.28,0.042
		c-0.015,0.72-0.051,1.438-0.108,2.156l-3.25-0.236C129.956,279.936,129.98,279.282,129.988,278.623L129.988,278.623z
		 M61.712,282.507l-9.524,1.145c0.152,1.321,0.362,2.635,0.629,3.938l9.404-1.979C62.007,284.584,61.837,283.548,61.712,282.507
		L61.712,282.507z M48.89,283.189l-9.307,0.954c0.126,1.258,0.292,2.506,0.498,3.738l9.225-1.557
		C49.133,285.291,48.997,284.244,48.89,283.189L48.89,283.189z M129.432,284.284l3.212,0.609c-0.174,0.877-0.38,1.747-0.618,2.609
		l-3.135-0.84C129.1,285.882,129.281,285.089,129.432,284.284L129.432,284.284z M142.15,286.238l3.162,0.567
		c-0.125,0.701-0.264,1.396-0.418,2.086l-3.181-0.714C141.873,287.534,142.018,286.888,142.15,286.238z M75.547,287.837
		l-8.059,3.557c0.286,0.648,0.592,1.285,0.918,1.91l7.811-4.073C75.979,288.774,75.755,288.309,75.547,287.837L75.547,287.837z
		 M62.986,288.63l-9.191,2.786c0.439,1.451,0.952,2.88,1.534,4.279l8.867-3.688C63.737,290.901,63.333,289.775,62.986,288.63
		L62.986,288.63z M127.888,289.766l3.037,1.15c-0.367,0.973-0.778,1.928-1.229,2.865l-2.927-1.408
		C127.179,291.524,127.551,290.655,127.888,289.766L127.888,289.766z M77.551,291.474l-7.318,4.901
		c0.467,0.697,0.959,1.377,1.478,2.034l6.92-5.449C78.252,292.48,77.893,291.983,77.551,291.474L77.551,291.474z M50.481,291.53
		l-9.001,2.558c0.408,1.44,0.871,2.857,1.385,4.25l8.778-3.241C51.211,293.929,50.823,292.739,50.481,291.53z M140.054,293.889
		l3.045,1.118c-0.273,0.746-0.566,1.482-0.875,2.211l-2.997-1.27C139.519,295.268,139.795,294.582,140.054,293.889z M65.292,294.454
		l-8.51,4.311c0.778,1.549,1.644,3.051,2.594,4.501l7.99-5.271C66.607,296.854,65.915,295.673,65.292,294.454L65.292,294.454z
		 M80.159,294.712l-6.355,6.098c0.66,0.688,1.347,1.351,2.065,1.979l5.798-6.631C81.142,295.698,80.641,295.214,80.159,294.712
		L80.159,294.712z M125.411,294.891l2.8,1.664c-0.596,1.004-1.242,1.979-1.934,2.921l-2.628-1.932
		C124.278,296.691,124.866,295.806,125.411,294.891L125.411,294.891z M83.282,297.448l-5.201,7.109
		c0.875,0.642,1.781,1.244,2.72,1.798l4.467-7.595C84.583,298.356,83.921,297.917,83.282,297.448L83.282,297.448z M53.506,299.469
		l-8.42,4.081c0.743,1.531,1.553,3.025,2.423,4.478l8.029-4.802C54.808,302.007,54.129,300.753,53.506,299.469z M122.086,299.507
		l2.492,2.145c-0.859,0.992-1.772,1.936-2.734,2.828l-2.234-2.396C120.48,301.27,121.306,300.409,122.086,299.507L122.086,299.507z
		 M86.833,299.608l-3.889,7.907c1.11,0.548,2.257,1.033,3.435,1.454l2.96-8.301C88.48,300.362,87.644,300.008,86.833,299.608
		L86.833,299.608z M68.622,299.753l-7.653,5.736c1.142,1.527,2.378,2.981,3.703,4.354l6.854-6.635
		C70.486,302.118,69.516,300.964,68.622,299.753L68.622,299.753z M106.275,300.317c-1.043,0.422-2.123,0.772-3.234,1.045
		l2.104,8.557c1.521-0.373,3.002-0.854,4.432-1.432L106.275,300.317z M136.666,301.057l2.815,1.636
		c-0.492,0.846-1.009,1.675-1.55,2.487l-2.688-1.787C135.741,302.63,136.214,301.85,136.666,301.057L136.666,301.057z
		 M90.704,301.107l-2.457,8.463c1.303,0.378,2.638,0.681,4.003,0.896l1.376-8.705C92.63,301.604,91.655,301.384,90.704,301.107
		L90.704,301.107z M102.17,301.563c-1.055,0.217-2.135,0.357-3.236,0.43l0.586,8.789c1.507-0.098,2.988-0.291,4.434-0.588
		L102.17,301.563z M94.78,301.911l-0.95,8.759c1.157,0.124,2.33,0.192,3.52,0.192c0.25,0,0.497-0.011,0.745-0.019l-0.201-8.806
		c-0.182,0.004-0.361,0.012-0.543,0.012c-0.869,0-1.726-0.051-2.57-0.142V301.911z M72.803,304.407l-6.561,7.002
		c1.453,1.352,2.994,2.606,4.611,3.757l5.57-7.769C75.152,306.481,73.943,305.482,72.803,304.407z M57.865,306.759l-7.582,5.48
		c1.136,1.568,2.349,3.076,3.632,4.521l6.998-6.209C59.836,309.339,58.817,308.074,57.865,306.759z M132.109,307.543l2.477,2.09
		c-0.783,0.927-1.599,1.823-2.447,2.688l-2.286-2.241C130.636,309.263,131.388,308.417,132.109,307.543z M77.716,308.284
		l-5.247,8.038c1.747,1.128,3.569,2.135,5.454,3.014l4.092-8.663C80.529,309.975,79.093,309.178,77.716,308.284L77.716,308.284z
		 M83.227,311.259l-3.75,8.772c1.988,0.86,4.035,1.579,6.125,2.148l2.479-9.281C86.426,312.468,84.804,311.92,83.227,311.259
		L83.227,311.259z M126.511,313.164l2.053,2.461c-1.082,0.903-2.203,1.762-3.361,2.57l-1.839-2.64
		C124.447,314.804,125.498,314.006,126.511,313.164L126.511,313.164z M63.425,313.175l-6.515,6.715
		c1.587,1.54,3.26,2.991,5.015,4.344l5.706-7.414C66.16,315.684,64.757,314.468,63.425,313.175L63.425,313.175z M119.984,317.671
		l1.611,2.811c-1.369,0.787-2.781,1.51-4.23,2.164l-1.335-2.959C117.38,319.079,118.7,318.407,119.984,317.671z M70.005,318.538
		l-5.251,7.743c2.007,1.364,4.103,2.608,6.279,3.716l4.24-8.342C73.448,320.725,71.69,319.682,70.005,318.538L70.005,318.538z
		 M77.418,322.682l-3.827,8.539c2.298,1.032,4.676,1.916,7.121,2.646l2.681-8.967C81.341,324.29,79.346,323.548,77.418,322.682
		L77.418,322.682z M85.442,325.467l-2.286,9.074c2.547,0.64,5.162,1.11,7.831,1.401l1.024-9.301
		C89.773,326.397,87.58,326.004,85.442,325.467z M93.83,326.807l-0.675,9.332c1.386,0.099,2.785,0.151,4.196,0.151
		c1.375,0,2.739-0.052,4.09-0.146l-0.66-9.333c-1.133,0.079-2.277,0.122-3.43,0.122C96.167,326.934,94.993,326.891,93.83,326.807
		L93.83,326.807z"/>
</g>
</svg>
